<?xml version="1.0" encoding="iso-8859-1"?>
<!-- Generator: Adobe Illustrator 19.0.0, SVG Export Plug-In . SVG Version: 6.00 Build 0)  -->
<svg xmlns="http://www.w3.org/2000/svg" xmlns:xlink="http://www.w3.org/1999/xlink" version="1.1" id="Capa_1" x="0px" y="0px" viewBox="0 0 511.875 511.875" style="enable-background:new 0 0 511.875 511.875;" xml:space="preserve" width="512" height="512">
<g>
	<path d="M511.875,90.938H0v195h39.375v23.196c0,12.022,9.781,21.804,21.804,21.804h301.393c12.022,0,21.804-9.781,21.804-21.804   v-23.196h127.5V90.938z M369.375,309.134c0,3.751-3.052,6.804-6.804,6.804H61.179c-3.751,0-6.804-3.052-6.804-6.804v-23.196h315   V309.134z M496.875,270.938H15v-165h481.875V270.938z"/>
	<rect x="39.375" y="240.938" width="345" height="15"/>
	<rect x="39.375" y="120.938" width="345" height="15"/>
	<rect x="39.375" y="150.938" width="345" height="15"/>
	<rect x="39.375" y="180.938" width="345" height="15"/>
	<rect x="39.375" y="210.938" width="345" height="15"/>
	<rect x="406.875" y="240.938" width="15" height="15"/>
	<rect x="436.875" y="240.938" width="15" height="15"/>
	<rect x="466.875" y="240.938" width="15" height="15"/>
	<rect x="99.375" y="345.938" width="15" height="22.5"/>
	<rect x="151.875" y="345.938" width="15" height="52.5"/>
	<rect x="204.375" y="345.938" width="15" height="22.5"/>
	<rect x="256.875" y="345.938" width="15" height="52.5"/>
	<rect x="309.375" y="345.938" width="15" height="22.5"/>
	<rect x="361.875" y="345.938" width="15" height="52.5"/>
	<rect x="46.875" y="345.938" width="15" height="52.5"/>
	<rect x="99.375" y="383.438" width="15" height="37.5"/>
	<rect x="204.375" y="383.438" width="15" height="37.5"/>
	<rect x="309.375" y="383.438" width="15" height="37.5"/>
	<rect x="421.875" y="210.938" width="15" height="15"/>
	<rect x="451.875" y="210.938" width="15" height="15"/>
	<path d="M481.875,120.938h-75v75h75V120.938z M466.875,180.938h-45v-45h45V180.938z"/>
</g>















</svg>
