<svg height="512pt" viewBox="-26 0 512 512" width="512pt" xmlns="http://www.w3.org/2000/svg"><path d="m430 259.996094h-10v-229.996094c0-16.542969-13.457031-30-30-30h-230c-5.523438 0-10 4.476562-10 10s4.476562 10 10 10h230c5.511719 0 10 4.484375 10 10v289.996094h-340v-289.996094c0-5.515625 4.484375-10 10-10 5.523438 0 10-4.476562 10-10s-4.476562-10-10-10c-16.542969 0-30 13.457031-30 30v10h-10c-16.542969 0-30 13.457031-30 30v40c0 16.542969 13.457031 30 30 30h10v250c0 13.035156 8.359375 24.148438 20 28.277344v31.722656c0 5.519531 4.476562 10 10 10h10v42c0 5.523438 4.476562 10 10 10s10-4.476562 10-10v-42h19.996094v42c0 5.523438 4.480468 10 10 10 5.523437 0 10-4.476562 10-10v-42h10.003906c5.523438 0 10-4.480469 10-10v-30h6.539062c4.125 11.640625 15.25 20 28.285157 20h70.351562c13.035157 0 24.15625-8.359375 28.285157-20h6.539062v30c0 5.519531 4.476562 10 10 10h10v42c0 5.523438 4.476562 10 10 10s10-4.476562 10-10v-42h20v42c0 5.523438 4.476562 10 10 10s10-4.476562 10-10v-42h10c5.523438 0 10-4.480469 10-10v-31.722656c11.636719-4.128906 20-15.242188 20-28.277344v-50.003906h10c16.542969 0 30-13.457032 30-30v-20c0-16.539063-13.457031-30-30-30zm-400-139.996094c-5.515625 0-10-4.484375-10-10v-40c0-5.515625 4.484375-10 10-10h10v60zm110 320h-60v-20h60zm180 0v-20h60v20zm80-80.003906h-44.996094c-5.523437 0-10 4.480468-10 10 0 5.523437 4.476563 10 10 10h44.996094v10.003906c0 5.511719-4.488281 10-10 10h-104.824219c-5.523437 0-10 4.476562-10 10 0 5.511719-4.488281 10-10 10h-70.351562c-5.511719 0-10-4.488281-10-10 0-5.523438-4.476563-10-10-10h-104.824219c-5.515625 0-10-4.488281-10-10v-50.003906h340zm40-50c0 5.515625-4.488281 10-10 10h-10v-40h10c5.511719 0 10 4.488281 10 10zm0 0"/><path d="m232.574219 55.667969c-5.332031-1.429688-10.820313 1.738281-12.246094 7.074219-4.101563 15.300781-1.984375 25.339843-.117187 34.195312 1.6875 7.992188 3.019531 14.304688.117187 25.140625-1.429687 5.335937 1.734375 10.816406 7.070313 12.246094.867187.234375 1.738281.34375 2.59375.34375 4.414062 0 8.457031-2.945313 9.652343-7.414063 4.144531-15.457031 2.015625-25.546875.136719-34.445312-1.675781-7.9375-2.996094-14.210938-.136719-24.890625 1.429688-5.335938-1.734375-10.816407-7.070312-12.25zm0 0"/><path d="m190 76.957031c-5.339844-1.429687-10.820312 1.738281-12.25 7.070313-4.101562 15.304687-1.984375 25.34375-.113281 34.199218 1.683593 7.988282 3.015625 14.304688.113281 25.140626-1.429688 5.335937 1.738281 10.816406 7.070312 12.246093.867188.230469 1.738282.34375 2.59375.34375 4.417969 0 8.457032-2.945312 9.65625-7.414062 4.140626-15.457031 2.011719-25.546875.132813-34.445313-1.671875-7.9375-2.996094-14.210937-.132813-24.890625 1.429688-5.335937-1.738281-10.820312-7.070312-12.25zm0 0"/><path d="m275.152344 76.957031c-5.335938-1.429687-10.820313 1.738281-12.25 7.070313-4.101563 15.304687-1.980469 25.34375-.113282 34.195312 1.6875 7.992188 3.019532 14.308594.113282 25.144532-1.429688 5.332031 1.738281 10.816406 7.070312 12.246093.867188.230469 1.738282.34375 2.597656.34375 4.414063 0 8.457032-2.945312 9.652344-7.414062 4.140625-15.457031 2.015625-25.546875.136719-34.445313-1.675781-7.941406-3-14.210937-.136719-24.890625 1.429688-5.335937-1.738281-10.820312-7.070312-12.25zm0 0"/><path d="m230 284.667969c26.007812 0 47.164062-21.160157 47.164062-47.167969 0-26.386719-25.421874-53.984375-37.640624-67.246094-.769532-.835937-1.484376-1.613281-2.136719-2.324218-1.894531-2.078126-4.574219-3.261719-7.386719-3.261719-2.808594 0-5.492188 1.183593-7.386719 3.261719-.648437.710937-1.367187 1.488281-2.136719 2.324218-12.21875 13.261719-37.640624 40.859375-37.640624 67.246094-.003907 26.007812 21.15625 47.167969 47.164062 47.167969zm0-95.167969c10.859375 12.148438 27.164062 32.242188 27.164062 48 0 14.980469-12.183593 27.167969-27.164062 27.167969s-27.167969-12.1875-27.167969-27.167969c0-15.757812 16.308594-35.851562 27.167969-48zm0 0"/><path d="m310.007812 379.996094c5.523438 0 10-4.476563 10-10 0-5.519532-4.476562-10-10-10h-.007812c-5.523438 0-9.996094 4.480468-9.996094 10 0 5.523437 4.480469 10 10.003906 10zm0 0"/><path d="m115.003906 20c5.523438 0 10-4.476562 10-10s-4.476562-10-10-10h-.007812c-5.523438 0-9.996094 4.476562-9.996094 10s4.480469 10 10.003906 10zm0 0"/></svg>